<?xml version="1.0" encoding="UTF-8"?>
<svg width="1200pt" height="1200pt" version="1.1" fill="white" viewBox="0 0 1200 1200" xmlns="http://www.w3.org/2000/svg">
 <path d="m403.95 729.88c3.0859 14.449 6.9492 28.512 11.953 42.191h-415.9v-745.94h42.191v703.75z"/>
 <path d="m569.84 380.81 57.348-136.18 61.477 25.859-23.207-184.68-148.31 112.43 60.898 25.621-66.961 158.99-91.754-106.09-95.746 182.11-96.098-93.047-109.64 249.13 48.793 21.406 78.828-178.91 92.148 89.219 92.531-175.86 59.258 68.594c23.637-23.594 50.66-43.516 80.434-58.598z"/>
 <path d="m1193.6 1057.4-190.86-210.16c-7.5-8.207-18.898-8.5195-28.512-4.0664-25.391 36.875-58.043 67.43-95.711 90.469-1.7891 7.7383-1.2461 15.863 4.5352 22.117l190.78 210c9.1445 10.152 24.996 10.934 35.16 1.7148l82.883-75c10.164-9.1445 10.871-24.914 1.7305-35.078z"/>
 <path d="m803.35 403.78c-143.59-49.691-300.27 26.41-349.96 169.92-10.355 29.93-15.121 60.156-15.121 90 0 114.06 71.328 220.55 185.27 259.92 143.55 49.691 300.12-26.328 349.79-169.84 10.164-29.93 15.312-60.168 15.312-90.168 0.023438-113.98-71.531-220.54-185.29-259.84zm99.527 325.55c-17.496 50.629-53.594 91.402-101.79 114.7-48.277 23.438-102.74 26.723-153.21 9.1445-80.82-27.816-135.04-104.06-135.04-189.46 0-22.117 3.6719-44.219 11.137-65.543 17.387-50.617 53.676-91.402 101.69-114.76 48.312-23.363 102.7-26.641 153.24-9.2148 80.785 27.973 135 104.14 135 189.45-0.011719 22.332-3.6719 44.363-11.027 65.688z"/>
</svg>
