<svg xmlns:rdf="http://www.w3.org/1999/02/22-rdf-syntax-ns#" xmlns:dc="http://purl.org/dc/elements/1.1/" xmlns:inkscape="http://www.inkscape.org/namespaces/inkscape" xmlns:svg="http://www.w3.org/2000/svg" xmlns:sodipodi="http://sodipodi.sourceforge.net/DTD/sodipodi-0.dtd" xmlns:cc="http://creativecommons.org/ns#" xmlns="http://www.w3.org/2000/svg" xmlns:xlink="http://www.w3.org/1999/xlink" version="1.1" x="0px" y="0px" viewBox="0 0 800 1000" enable-background="new 0 0 800 800" xml:space="preserve"><g><path fill="#Fff" d="M646.477,80.507H538.023c-1.26-15.059-13.748-26.915-29.124-26.915H291.118   c-15.384,0-27.865,11.855-29.125,26.915H153.523c-12.155,0-22.023,9.859-22.023,22.023v621.854   c0,12.173,9.868,22.023,22.023,22.023h492.954c12.182,0,22.023-9.851,22.023-22.023V102.53   C668.5,90.366,658.658,80.507,646.477,80.507z M624.454,702.361H175.546V124.553h448.908V702.361z"/><path fill="#Fff" d="M296.335,294.005h283.216c12.155,0,22.023-9.851,22.023-22.023c0-12.164-9.868-22.023-22.023-22.023   H296.335c-12.155,0-22.023,9.859-22.023,22.023C274.312,284.154,284.18,294.005,296.335,294.005z"/><path fill="#Fff" d="M296.335,401.688h192.108c12.155,0,22.023-9.868,22.023-22.023c0-12.164-9.868-22.023-22.023-22.023   H296.335c-12.155,0-22.023,9.859-22.023,22.023C274.312,391.819,284.18,401.688,296.335,401.688z"/><path fill="#Fff" d="M296.335,509.353h247.171c12.154,0,22.022-9.851,22.022-22.022c0-12.164-9.868-22.023-22.022-22.023   H296.335c-12.155,0-22.023,9.859-22.023,22.023C274.312,499.502,284.18,509.353,296.335,509.353z"/><path fill="#Fff" d="M296.335,617.035h123.581c12.172,0,22.023-9.867,22.023-22.022c0-12.164-9.852-22.023-22.023-22.023   H296.335c-12.155,0-22.023,9.859-22.023,22.023C274.312,607.168,284.18,617.035,296.335,617.035z"/><path fill="#Fff" d="M230.677,294.005h8.172c12.181,0,22.023-9.851,22.023-22.023c0-12.164-9.842-22.023-22.023-22.023h-8.172   c-12.155,0-22.023,9.859-22.023,22.023C208.654,284.154,218.521,294.005,230.677,294.005z"/><path fill="#Fff" d="M230.677,401.688h5.551c12.164,0,22.023-9.868,22.023-22.023c0-12.164-9.859-22.023-22.023-22.023h-5.551   c-12.155,0-22.023,9.859-22.023,22.023C208.654,391.819,218.521,401.688,230.677,401.688z"/><path fill="#Fff" d="M230.677,509.353h7.144c12.155,0,22.023-9.851,22.023-22.022c0-12.164-9.868-22.023-22.023-22.023h-7.144   c-12.155,0-22.023,9.859-22.023,22.023C208.654,499.502,218.521,509.353,230.677,509.353z"/><path fill="#Fff" d="M230.677,617.035h3.572c12.172,0,22.023-9.867,22.023-22.022c0-12.164-9.851-22.023-22.023-22.023h-3.572   c-12.155,0-22.023,9.859-22.023,22.023C208.654,607.168,218.521,617.035,230.677,617.035z"/></g><text x="0" y="815" fill="#Fff" font-size="5px" font-weight="bold" font-family="'Helvetica Neue', Helvetica, Arial-Unicode, Arial, Sans-serif">Created by abderraouf omara</text><text x="0" y="820" fill="#Fff" font-size="5px" font-weight="bold" font-family="'Helvetica Neue', Helvetica, Arial-Unicode, Arial, Sans-serif">from the Noun Project</text></svg>